inDegrees=no
num_controls=7
num_derivatives=13
num_iterations=126
num_multipliers=7
num_parameters=0
num_slacks=7
num_states=26
objective=0.476859
objective_accelerations=0.044609
objective_balance=0.003681
objective_effort=0.040863
objective_height=0.382051
objective_ligament=0.005656
solver_duration=1736.980135
status=Solve_Succeeded
success=true
DataType=double
version=3
OpenSimVersion=4.5
endheader
time	/jointset/ground_pelvis/pelvis_tilt/value	/jointset/ground_pelvis/pelvis_tx/value	/jointset/ground_pelvis/pelvis_ty/value	/jointset/hip_l/hip_flexion_l/value	/jointset/hip_l/hip_adduction_l/value	/jointset/hip_l/hip_rotation_l/value	/jointset/back/lumbar_extension/value	/jointset/patellofemoral_l/patellar_flexion_l/value	/jointset/knee_l/knee_flexion_l/value	/jointset/knee_l/knee_adduction_l/value	/jointset/knee_l/knee_rotation_l/value	/jointset/ankle_l/ankle_angle_l/value	/jointset/subtalar_l/subtalar_angle_l/value	/jointset/ground_pelvis/pelvis_tilt/speed	/jointset/ground_pelvis/pelvis_tx/speed	/jointset/ground_pelvis/pelvis_ty/speed	/jointset/hip_l/hip_flexion_l/speed	/jointset/hip_l/hip_adduction_l/speed	/jointset/hip_l/hip_rotation_l/speed	/jointset/back/lumbar_extension/speed	/jointset/patellofemoral_l/patellar_flexion_l/speed	/jointset/knee_l/knee_flexion_l/speed	/jointset/knee_l/knee_adduction_l/speed	/jointset/knee_l/knee_rotation_l/speed	/jointset/ankle_l/ankle_angle_l/speed	/jointset/subtalar_l/subtalar_angle_l/speed	/forceset/tau_hip_flexion_l	/forceset/tau_hip_adduction_l	/forceset/tau_hip_rotation_l	/forceset/tau_knee_flexion_l	/forceset/tau_ankle_angle_l	/forceset/tau_subtalar_angle_l	/forceset/tau_lumbar_extension	lambda_cid13_p0	lambda_cid13_p1	lambda_cid13_p2	lambda_cid13_p3	lambda_cid13_p4	lambda_cid13_p5	lambda_cid14_p0	/jointset/ground_pelvis/pelvis_tilt/accel	/jointset/ground_pelvis/pelvis_tx/accel	/jointset/ground_pelvis/pelvis_ty/accel	/jointset/hip_l/hip_flexion_l/accel	/jointset/hip_l/hip_adduction_l/accel	/jointset/hip_l/hip_rotation_l/accel	/jointset/back/lumbar_extension/accel	/jointset/patellofemoral_l/patellar_flexion_l/accel	/jointset/knee_l/knee_flexion_l/accel	/jointset/knee_l/knee_adduction_l/accel	/jointset/knee_l/knee_rotation_l/accel	/jointset/ankle_l/ankle_angle_l/accel	/jointset/subtalar_l/subtalar_angle_l/accel	gamma_cid13_p0	gamma_cid13_p1	gamma_cid13_p2	gamma_cid13_p3	gamma_cid13_p4	gamma_cid13_p5	gamma_cid14_p0
1	-0.114182396853494	-0.06075559857252839	0.6791399803789218	1.340975196735263	-0.3275470420765025	0.07448963399461543	-0.9599292937814171	1.404125010133169	1.404125010132965	-0.06536242463238583	-0.1745164309937058	0.2753203788176721	0.06383586799936437	0.1022070644632529	0.02526669167630218	0.06999423403489069	-0.2968772549192165	-0.007521703452225427	-0.06462548319812221	-0.0002847781877156509	-0.1598024436853316	-0.1598024436853295	-0.002319397864923057	-1.055538397356041e-05	0.02610214244924506	0.002600493937748584	-0.3768483785034779	0.01800412247809023	0.00149217151168681	-0.3763905763867577	0.04231183499294441	0.02339684698629229	0.4278076179790399	-37.85966442286216	-2.314385695154665	-1.476479474969852	13.8022416126511	-800.8994186970317	-66.98850778593456	-0.04149079225298598	0.8323714528520028	-0.01061895742868798	1.561323645014884	-5.020667256426637	-0.1350674933425705	-1.675198727613896	0.01546861481380039	-5.023041518473017	-5.023041518473043	-0.3534789040400691	-0.01357914734270123	-1.19058609405101	-0.6733240290796625	-8.970888942221581e-09	1.999735427916299e-08	6.46898625471136e-08	6.395250803092548e-09	-2.34272235269172e-08	1.277488980707e-07	-1.698499756511891e-08
1.01	-0.1131190433288655	-0.06050340262076268	0.6799177615191829	1.337756251877499	-0.3276282535903893	0.07375880499821942	-0.9599307379268345	1.402276255301288	1.402276255301118	-0.0654013634022894	-0.1745162752830663	0.2755219970812112	0.06382928069293212	0.1104674512036483	0.02517940926777368	0.08554940416842642	-0.3468910568328498	-0.008711497052788664	-0.08153153602714279	1.198079048600774e-05	-0.2099361619572672	-0.2099361619572638	-0.005466153626838605	3.976658289875531e-05	0.0142104614085796	-0.003910825286220651	-0.3760147909973271	0.01817832686032463	0.001416532815658223	-0.3761307070878108	0.04220404456616481	0.02354404148265732	0.4273998793974234	-37.85241034152645	-2.393397937283314	-1.448102045105879	13.65474612086251	-800.464797441789	-67.06234422916746	-0.04152477664881585	0.823441810936251	-0.006743545742533871	1.550719162318988	-4.988640588030326	-0.1095778061170298	-1.697009444223513	0.03918428586460256	-5.006678189083625	-5.006678189083428	-0.2949548529442552	0.01407129585882063	-1.190116523843255	-0.6389794697750583	-1.587269446818379e-08	1.293899002597479e-08	9.437785000717576e-08	1.366758405821297e-08	-3.022069216367796e-08	1.483315678202084e-07	-2.334789469432468e-08
1.02	-0.111972972031572	-0.0602518716257178	0.6808507154537387	1.334037788214764	-0.3277210915428215	0.07285917529679801	-0.9599287335327193	1.399926535045182	1.399926535045042	-0.06547170591794767	-0.1745156696673282	0.2756043670513897	0.06375779147411634	0.1187506189961634	0.02513370033213844	0.1010287928938108	-0.3967810159144288	-0.009846991161506476	-0.09838562420325857	0.0004049296303386704	-0.2599955285303949	-0.2599955285303904	-0.008600147015831176	7.942563603612277e-05	0.002252483777156337	-0.01037988853897017	-0.375181203491155	0.01835253124256399	0.00134089411962599	-0.3758708377888624	0.04209625413938265	0.0236912359790279	0.4269921408158252	-37.8564803828316	-2.469196756536975	-1.421642728351139	13.56518676318408	-800.1751905229103	-67.11130048472062	-0.04155937842957148	0.8369276632759396	-0.002304262850045688	1.546167363384601	-4.995898690015789	-0.1242075949734801	-1.66480579703293	0.03470658714408431	-5.008171178711459	-5.008171178711515	-0.3509264294554712	-0.01571173008968322	-1.203845412202586	-0.6648728348357203	-2.30044635144316e-08	3.626957590708179e-09	1.222194519289122e-07	2.043645639505692e-08	-3.719968608673284e-08	1.665075761918347e-07	-2.970294987114493e-08
1.03	-0.1107444183512722	-0.06000035622673369	0.6819380548709338	1.329821291121597	-0.3278249904084379	0.07179131125475613	-0.9599203821307732	1.397076646697863	1.397076646697816	-0.06557332456050116	-0.174514690654968	0.2755671145912634	0.06362199412026365	0.1269186629270561	0.02519995198291971	0.1164238650203038	-0.4464754184364657	-0.01092389283406597	-0.1151778232059635	0.001474267501260033	-0.3099653330755699	-0.3099653330755677	-0.01172129607772424	0.0001123302695905653	-0.009685366585289745	-0.01675874980562678	-0.3758191043400528	0.01868889721750032	0.001222181638117054	-0.375075759743592	0.04179069038078809	0.0239446565415104	0.4283274247005402	-37.95321731281685	-2.589281451582724	-1.371700707261552	13.07286196546717	-800.7596897029731	-67.14634407487665	-0.04160205121104976	0.8005220718848807	0.0156812377817094	1.5338844301133	-4.949767286469957	-0.09811203970064869	-1.685051512458069	0.1743848950422727	-4.988856663644067	-4.988856663644353	-0.2923850217517559	0.0122195538598589	-1.186115258507801	-0.6212844807317141	-3.013857912721294e-08	-5.708071458661282e-09	1.500422131818903e-07	2.720019137559192e-08	-4.418057312495399e-08	1.846590267942989e-07	-3.605792502804287e-08
1.04	-0.1094354283688856	-0.05974726003949388	0.6831788864679604	1.325109138752581	-0.3279393944080398	0.07055580031057385	-0.9598950698483534	1.393727565990847	1.393727565990892	-0.06570608986911267	-0.1745134969975188	0.2754110115454642	0.06342302981211424	0.1348378794135084	0.02544985798327894	0.1317272288600671	-0.4959120710853947	-0.01194801795876544	-0.1319150046314208	0.003797105691223014	-0.3598340004696865	-0.3598340004696859	-0.01482948022743735	0.0001223546544191242	-0.02151763335742329	-0.02301327939832688	-0.3764570051889345	0.01902526319244121	0.001103469156603516	-0.3742806816983206	0.04148512662219183	0.02419807710399832	0.4296627085852693	-38.0615186376613	-2.706069544441596	-1.323737022213268	12.63710348897446	-801.4933309927222	-67.1569692133363	-0.04164463305797069	0.7871621743878664	0.03442660706553546	1.527825706038634	-4.944348715394216	-0.1136522854014712	-1.653802281583417	0.2854066509521075	-4.987943748499745	-4.987943748499695	-0.3483334470194772	-0.02028777983485643	-1.182728694140094	-0.6400065000444221	-3.456295042409312e-08	-1.606550867883486e-08	1.772885155169973e-07	2.86010621057748e-08	-4.967762597858941e-08	1.953962074783377e-07	-4.172269345990817e-08
1.05	-0.1080485046099851	-0.05949074995371636	0.6845722053350052	1.319904127009131	-0.328063735450861	0.06915331948926781	-0.9598404380742639	1.389880430590595	1.38988043059063	-0.06586991355655665	-0.1745122967881459	0.2751370449434341	0.0631621763434793	0.1425022130478003	0.02588241884517333	0.146912339582205	-0.5450237407299675	-0.01290638954500836	-0.1485630432015425	0.007322935759245013	-0.4095637890423283	-0.4095637890423329	-0.01793240000533505	0.0001169371463554072	-0.03326479775737173	-0.02913189410158682	-0.3765143873183646	0.01934580583994367	0.000953742245270999	-0.3733309374859607	0.04147608083532314	0.02450222340922785	0.4304793655495573	-38.03383196296037	-2.875479563296912	-1.259638058724779	12.09943833383936	-801.6388388440785	-67.21823749149634	-0.04170228462472383	0.7493667257635394	0.05221575599552436	1.510211929575003	-4.884600469060031	-0.084880293564288	-1.667625525159771	0.4152241794856084	-4.961093300686512	-4.961093300687314	-0.2908675684181803	0.009264926117420084	-1.169079499168988	-0.5939806300345659	-3.890264221110142e-08	-2.645489615434606e-08	2.045168035109209e-07	2.983434332813421e-08	-5.512830901395654e-08	2.059016922274258e-07	-4.73658929316162e-08
1.06	-0.1065862779611797	-0.05922900527327108	0.686116646944126	1.31420999369322	-0.3281972503492103	0.06758489410617406	-0.9597447374005371	1.385536877926807	1.385536877926836	-0.06606468570682808	-0.1745111640213733	0.274745932860155	0.06284089839289829	0.1498984573946411	0.02649677691683181	0.1619517772752892	-0.5937363855773897	-0.01378278906439567	-0.1651039169889935	0.01201088561760271	-0.4591174531765752	-0.4591174531765852	-0.02101917279296223	0.000108866134673686	-0.04494672960719111	-0.03509817578755844	-0.3765717694477986	0.01966634848744764	0.0008040153339318874	-0.3723811932736011	0.04146703504845558	0.02480636971445997	0.4312960225138417	-38.01786785210783	-3.041547827440764	-1.19754458276586	11.61653478052997	-801.9361505823941	-67.25655379575029	-0.04175836633059272	0.733544316897648	0.07078604901834412	1.49869110022789	-4.864543755964108	-0.09725787203034936	-1.632369325049279	0.5178306090192313	-4.95271886082079	-4.952718860820787	-0.3451040489653694	-0.02081848055845818	-1.169682184114295	-0.6095398965867649	-4.367337203160641e-08	-3.811187872485707e-08	2.276463154499928e-07	3.165507796010154e-08	-6.07835918600275e-08	2.130431814040397e-07	-5.248196165521459e-08
